<mxfile host="app.diagrams.net" modified="2021-12-09T15:08:57.369Z" agent="5.0 (Windows NT 10.0; Win64; x64) AppleWebKit/537.36 (KHTML, like Gecko) Chrome/94.0.4606.71 Safari/537.36" etag="YGQ1oqFViV_a3nghltcO" version="15.9.1" type="github">
  <diagram id="a0E6QZM2HZ-s7aH5WRqD" name="Page-1">
    <mxGraphModel dx="1422" dy="705" grid="1" gridSize="10" guides="1" tooltips="1" connect="1" arrows="1" fold="1" page="1" pageScale="1" pageWidth="827" pageHeight="1169" math="0" shadow="0">
      <root>
        <mxCell id="0" />
        <mxCell id="1" parent="0" />
        <mxCell id="RB50mdJiRusD2UhwO1DG-13" value="" style="shape=mxgraph.mockup.containers.marginRect;rectMarginTop=10;strokeColor=#666666;strokeWidth=1;dashed=0;rounded=1;arcSize=5;recursiveResize=0;fontSize=17;fillColor=none;" vertex="1" parent="1">
          <mxGeometry x="50" y="110" width="510" height="174" as="geometry" />
        </mxCell>
        <mxCell id="RB50mdJiRusD2UhwO1DG-14" value="" style="shape=rect;strokeColor=none;fillColor=none;strokeWidth=1;dashed=0;rounded=1;arcSize=20;fontColor=none;fontSize=17;spacing=2;spacingTop=-2;align=left;autosize=1;spacingLeft=4;resizeWidth=0;resizeHeight=0;perimeter=none;noLabel=1;" vertex="1" parent="RB50mdJiRusD2UhwO1DG-13">
          <mxGeometry x="5" y="-5" width="50" height="40" as="geometry" />
        </mxCell>
        <mxCell id="RB50mdJiRusD2UhwO1DG-2" value="&lt;b&gt;BE/IC&lt;/b&gt;" style="shape=ellipse;fillColor=#eeeeee;strokeColor=#999999;gradientColor=#cccccc;html=1;align=left;spacingLeft=4;fontSize=17;fontColor=#666666;labelPosition=right;shadow=0;" vertex="1" parent="1">
          <mxGeometry x="72" y="149" width="14" height="15" as="geometry" />
        </mxCell>
        <mxCell id="RB50mdJiRusD2UhwO1DG-5" value="&lt;b&gt;N° de&lt;br&gt;Commande&lt;/b&gt;" style="shape=ellipse;fillColor=#eeeeee;strokeColor=#999999;gradientColor=#cccccc;html=1;align=left;spacingLeft=4;fontSize=17;fontColor=#666666;labelPosition=right;shadow=0;" vertex="1" parent="1">
          <mxGeometry x="72" y="200" width="14" height="15" as="geometry" />
        </mxCell>
        <mxCell id="RB50mdJiRusD2UhwO1DG-6" value="" style="strokeWidth=1;shadow=0;dashed=0;align=center;html=1;shape=mxgraph.mockup.text.textBox;fontColor=#666666;align=left;fontSize=17;spacingLeft=4;spacingTop=-3;strokeColor=#666666;mainText=" vertex="1" parent="1">
          <mxGeometry x="411" y="141.5" width="80" height="30" as="geometry" />
        </mxCell>
        <mxCell id="RB50mdJiRusD2UhwO1DG-7" value="&lt;font style=&quot;font-size: 17px&quot;&gt;&lt;b&gt;Bon d&#39;enlèvement :&lt;/b&gt;&lt;/font&gt;" style="text;html=1;align=center;verticalAlign=middle;resizable=0;points=[];autosize=1;strokeColor=none;fillColor=none;" vertex="1" parent="1">
          <mxGeometry x="195" y="146.5" width="170" height="20" as="geometry" />
        </mxCell>
        <mxCell id="RB50mdJiRusD2UhwO1DG-8" value="" style="strokeWidth=1;shadow=0;dashed=0;align=center;html=1;shape=mxgraph.mockup.text.textBox;fontColor=#666666;align=left;fontSize=17;spacingLeft=4;spacingTop=-3;strokeColor=#666666;mainText=" vertex="1" parent="1">
          <mxGeometry x="412" y="190.5" width="80" height="30" as="geometry" />
        </mxCell>
        <mxCell id="RB50mdJiRusD2UhwO1DG-9" value="&lt;font style=&quot;font-size: 17px&quot;&gt;&lt;b&gt;Instruction Chargement :&lt;/b&gt;&lt;/font&gt;" style="text;html=1;align=center;verticalAlign=middle;resizable=0;points=[];autosize=1;strokeColor=none;fillColor=none;" vertex="1" parent="1">
          <mxGeometry x="190" y="195.5" width="220" height="20" as="geometry" />
        </mxCell>
        <mxCell id="RB50mdJiRusD2UhwO1DG-10" value="" style="strokeWidth=1;shadow=0;dashed=0;align=center;html=1;shape=mxgraph.mockup.text.textBox;fontColor=#666666;align=left;fontSize=17;spacingLeft=4;spacingTop=-3;strokeColor=#666666;mainText=" vertex="1" parent="1">
          <mxGeometry x="412" y="241.5" width="139" height="30" as="geometry" />
        </mxCell>
        <mxCell id="RB50mdJiRusD2UhwO1DG-11" value="&lt;font style=&quot;font-size: 17px&quot;&gt;&lt;b&gt;N° Transport :&lt;/b&gt;&lt;/font&gt;" style="text;html=1;align=center;verticalAlign=middle;resizable=0;points=[];autosize=1;strokeColor=none;fillColor=none;" vertex="1" parent="1">
          <mxGeometry x="192" y="246.5" width="130" height="20" as="geometry" />
        </mxCell>
        <mxCell id="RB50mdJiRusD2UhwO1DG-12" value="" style="strokeWidth=1;shadow=0;dashed=0;align=center;html=1;shape=mxgraph.mockup.text.textBox;fontColor=#666666;align=left;fontSize=17;spacingLeft=4;spacingTop=-3;strokeColor=#B3B3B3;mainText=;fillColor=none;" vertex="1" parent="1">
          <mxGeometry x="60" y="300" width="68" height="30" as="geometry" />
        </mxCell>
        <mxCell id="RB50mdJiRusD2UhwO1DG-18" value="Valider" style="rounded=1;html=1;shadow=0;dashed=0;whiteSpace=wrap;fontSize=10;fillColor=#E6E6E6;align=center;strokeColor=#B3B3B3;fontColor=#333333;" vertex="1" parent="1">
          <mxGeometry x="271.12" y="306.56" width="57.75" height="16.88" as="geometry" />
        </mxCell>
        <mxCell id="RB50mdJiRusD2UhwO1DG-19" value="Annuler" style="rounded=1;html=1;shadow=0;dashed=0;whiteSpace=wrap;fontSize=10;fillColor=#E6E6E6;align=center;strokeColor=#E6E6E6;fontColor=#333333;" vertex="1" parent="1">
          <mxGeometry x="350" y="306.56" width="54.5" height="16.88" as="geometry" />
        </mxCell>
        <mxCell id="RB50mdJiRusD2UhwO1DG-21" value="" style="sketch=0;outlineConnect=0;fontColor=#232F3E;gradientColor=none;fillColor=#D45B07;strokeColor=none;dashed=0;verticalLabelPosition=bottom;verticalAlign=top;align=center;html=1;fontSize=12;fontStyle=0;aspect=fixed;pointerEvents=1;shape=mxgraph.aws4.container_registry_image;" vertex="1" parent="1">
          <mxGeometry x="570" y="110" width="180" height="180" as="geometry" />
        </mxCell>
        <mxCell id="RB50mdJiRusD2UhwO1DG-22" value="&lt;font style=&quot;font-size: 12px&quot;&gt;Etat de la connexion avec le lecteur code à barres&lt;/font&gt;" style="strokeWidth=1;shadow=0;dashed=0;align=center;html=1;shape=mxgraph.mockup.forms.rrect;rSize=0;fillColor=#eeeeee;strokeColor=#999999;gradientColor=#cccccc;align=left;spacingLeft=4;fontSize=17;fontColor=#666666;labelPosition=right;" vertex="1" parent="1">
          <mxGeometry x="60" y="350" width="15" height="15" as="geometry" />
        </mxCell>
        <mxCell id="RB50mdJiRusD2UhwO1DG-56" value="" style="shape=stencil(lVrbcls3DPwavXJ4Ay/PafofmYlTa+raGce9/X2hykcyF8pC502WgSOCXOwC4DmUTz8ev3x/OOT44+315feHv49f3x4P5ZdDzsfnx4fX45t+OpTPh/Lp28vrw2+vL38+fz3//f3LyfL06Y+Xv05P+OfsJzmkfvLK8d/zNzXU+v8Xv57tn47PH+1TqLLHPgYZi30J0n5uX2doE+zfF/gz+7ja59AHse9hZrDPmdi30NZ4U2hsPRJSAvv3L27bl1DX/YlhFGJ/+fmrPdvPMsNoYJ/J/pQRYgX7GIl9CyXvsa94vo69Hr/ssU+h73p+DGVPvHlivjj2ire4x74FwfWw88oS8h48aLpG3B+GN02P93/fh+dTeuzJl+ty78vHNEPtYM/yPQ3MrxIKiTd1a99IvKmFinw1JrGXUFc8VMpvqVp7xrdJ+SSBfWf7mYOszxeKz5SCTLBneEsR871R/ChddTBn8FH2X9HTt3Bumo/t7DfzQcHQQ1/3ZtK97yGua088dxU6kFopFIIdCWNdTuK5olK0bo6CIzLtDW2l8sSxqVSypkri2Cnm+Y3GW5BqNTlZritVgfTy88pYynhciOvJmaIthQmliZO7W6Ze7Pn+mFJM4Uy5KiSgNq4VMcx1PwuPV1N9xXPh8UZcf+HJHlHqtFhhXBtR6irXrosyX+y5Vlh7zoV2PRzPEc9LeO2gpcya78L5IWKpIVwrDB6Es23C9TSOt4T527j2ZvN8jp+MpVibNN6yofciLk5vgXzYOR50t9d4+6D8rKXemi+D40G27LjYc31p225f7Hm8evorXw2uF8M8X6g+mlpg8NpB5TMXdJiMcDU++AUH0aYaG/zIVOFSRgfK0fo8iMERsYgN53Q6DJWxiQ5Oy1DWXZocRycgrTFMTkR5IFInr1S0y4NUmLzs1jZSYJc41xXZoH9x4GAtHbGkDqyasJ355HKv6tWNA51FaNAdHVg+XPXr4tD5dKSHVtGBUqQyLkCDl+BiiqjJE0g1rAg6MGiIob05KY2JPm+gA0vRZnhpcuFppolLkSd1k1B2evRQ4q5Faa+V94TdI44CnI1VeU2wJH7WveyEX69YwjgZ0RvWYJNrUO9YVE3eFKnmd8NMdJfmDbJkKaSqD33p5HW8yj6yKx/ijIJ99eSVthYKFbDENUgrBevAtlWVH1JocHir8lsHWs0M48CpTJ8HOepUGxpiMvUMnYbEDcwfKiymQdNMkweXRUUOjMcGB59iM0PQHEvqMCFoPkXRdAGV65zwT0K+0kx3zkFwBtqdIVbDIWXnnbDSFtRkTqtx4jnoTXjGKZPCLzQOb3WQlQQap0p1AG5tnPlOarBiqTlBq97saijVAfRBeIpOU56Ic9JKxisvCS9E1QGbaF5Mf9Dxy9jAwbf5ibo3CGfwYbepugcBYCpcqNUBeo7iggmGK86wSuEKMTjTMHXIK1yd6bHNUW/23bH+cS4HlGcyTBh5o6VMhrcnTtBaTcOM1wFfwbIy8Rbi1BpC5epqFrTUztjZymjibKw6PuEOiye16ngb6MAKV9Vx6AiSU8NVbEc9B9XdusshmdsI7tAnjsc8h47zOs9B9joUpBnPIZnbTcchYsY5J900XcwuMSxpX9YgaE4C16HnnfBWWe7mF6hDNfngOsBLBJ5D2TjiXodsOmRnl8y9pXdw8UbG0emsGVcmrkBai0zjwKhSBt52pkRLMunYyHk3jPZKkl+JiZg7PV6tSzWXmM4Qu5gBEO1Q1D7DDIu/oJSxYXfGReaWwh1gQWHCKx8xtzjOCM7UuM5Q0Jbp/AUl0zg4lxodi3SuzlqbQpXEO9Aq+AIXZwr7QpZjX5HhHfuyZdSd9qaDdi7ZE2pa3cY5t+1vvHBHJ+PTvsCy4lk/XN8e/HZ8ejq/fPjx//i2oX51flOxfP4P);fillColor=none;fontSize=12;fontColor=none;strokeColor=#B3B3B3;" vertex="1" parent="1">
          <mxGeometry x="181" y="236" width="138" height="45" as="geometry" />
        </mxCell>
      </root>
    </mxGraphModel>
  </diagram>
</mxfile>
